HIERARCHY
ROOT reference
{
  OFFSET 0 0 0
  CHANNELS 6 Xposition Yposition Zposition Zrotation Xrotation Yrotation
  JOINT Hips
  {
    OFFSET 349.773 89.4622 219.413
    CHANNELS 3 Zrotation Xrotation Yrotation
    JOINT RightUpLeg
    {
      OFFSET -9.25229 -1.56476 -0.00486621
      CHANNELS 3 Zrotation Xrotation Yrotation
      JOINT RightLeg
      {
        OFFSET 0.0546168 -41.8841 0.068862
        CHANNELS 3 Zrotation Xrotation Yrotation
        JOINT RightFoot
        {
          OFFSET -1.63893 -40.8901 3.53979
          CHANNELS 3 Zrotation Xrotation Yrotation
          End Site
          {
            OFFSET 0 -7.69 17.5
          }
        }
      }
    }
    JOINT LeftUpLeg
    {
      OFFSET 9.30241 -1.63853 -0.0284428
      CHANNELS 3 Zrotation Xrotation Yrotation
      JOINT LeftLeg
      {
        OFFSET 0.0539686 -41.842 -0.0517406
        CHANNELS 3 Zrotation Xrotation Yrotation
        JOINT LeftFoot
        {
          OFFSET 1.12518 -42.5382 -2.5849
          CHANNELS 3 Zrotation Xrotation Yrotation
          End Site
          {
            OFFSET 0 -7.69 17.5
          }
        }
      }
    }
    JOINT Spine
    {
      OFFSET 0.0144198 14.3187 0.0981135
      CHANNELS 3 Zrotation Xrotation Yrotation
      JOINT Spine1
      {
        OFFSET 0.0112165 9.7169 0.0514987
        CHANNELS 3 Zrotation Xrotation Yrotation
        JOINT Spine2
        {
          OFFSET 0.0255827 10.1205 -0.00638435
          CHANNELS 3 Zrotation Xrotation Yrotation
          JOINT Spine3
          {
            OFFSET -0.00190646 9.72552 0.024249
            CHANNELS 3 Zrotation Xrotation Yrotation
            JOINT Neck
            {
              OFFSET -0.136438 10.3681 0.0553958
              CHANNELS 3 Zrotation Xrotation Yrotation
              JOINT Head
              {
                OFFSET 0.0264476 9.5071 0.170402
                CHANNELS 3 Zrotation Xrotation Yrotation
                End Site
                {
                  OFFSET 0 15.95 0
                }
              }
            }
            JOINT RightShoulder
            {
              OFFSET -3.1747 6.92483 0.00547946
              CHANNELS 3 Zrotation Xrotation Yrotation
              JOINT RightArm
              {
                OFFSET -12.7755 -0.0136287 0.0362428
                CHANNELS 3 Zrotation Xrotation Yrotation
                JOINT RightForeArm
                {
                  OFFSET -26.5642 -0.108975 -0.0233747
                  CHANNELS 3 Zrotation Xrotation Yrotation
                  JOINT RightHand
                  {
                    OFFSET -25.905 -0.185223 0.00356295
                    CHANNELS 3 Zrotation Xrotation Yrotation
                    JOINT RightHandThumb1
                    {
                      OFFSET -2.48905 0.190105 3.12053
                      CHANNELS 3 Zrotation Xrotation Yrotation
                      JOINT RightHandThumb2
                      {
                        OFFSET -3.68274 0 0
                        CHANNELS 3 Zrotation Xrotation Yrotation
                        JOINT RightHandThumb3
                        {
                          OFFSET -2.55832 0 0
                          CHANNELS 3 Zrotation Xrotation Yrotation
                          End Site
                          {
                            OFFSET -2.194 0 0
                          }
                        }
                      }
                    }
                    JOINT RightInHandIndex
                    {
                      OFFSET -3.22368 0.508421 1.97842
                      CHANNELS 3 Zrotation Xrotation Yrotation
                      JOINT RightHandIndex1
                      {
                        OFFSET -5.21684 -0.091368 0.999158
                        CHANNELS 3 Zrotation Xrotation Yrotation
                        JOINT RightHandIndex2
                        {
                          OFFSET -3.61937 0 0
                          CHANNELS 3 Zrotation Xrotation Yrotation
                          JOINT RightHandIndex3
                          {
                            OFFSET -2.0521 0 0
                            CHANNELS 3 Zrotation Xrotation Yrotation
                            End Site
                            {
                              OFFSET -1.805 0 0
                            }
                          }
                        }
                      }
                    }
                    JOINT RightInHandMiddle
                    {
                      OFFSET -3.38211 0.517263 0.756737
                      CHANNELS 3 Zrotation Xrotation Yrotation
                      JOINT RightHandMiddle1
                      {
                        OFFSET -5.17411 -0.084 0.313895
                        CHANNELS 3 Zrotation Xrotation Yrotation
                        JOINT RightHandMiddle2
                        {
                          OFFSET -3.94947 0 0
                          CHANNELS 3 Zrotation Xrotation Yrotation
                          JOINT RightHandMiddle3
                          {
                            OFFSET -2.47579 0 0
                            CHANNELS 3 Zrotation Xrotation Yrotation
                            End Site
                            {
                              OFFSET -1.975 0 0
                            }
                          }
                        }
                      }
                    }
                    JOINT RightInHandRing
                    {
                      OFFSET -3.36516 0.537895 -0.128947
                      CHANNELS 3 Zrotation Xrotation Yrotation
                      JOINT RightHandRing1
                      {
                        OFFSET -4.63474 -0.022105 -0.478947
                        CHANNELS 3 Zrotation Xrotation Yrotation
                        JOINT RightHandRing2
                        {
                          OFFSET -3.44238 0 0
                          CHANNELS 3 Zrotation Xrotation Yrotation
                          JOINT RightHandRing3
                          {
                            OFFSET -2.3881 0 0
                            CHANNELS 3 Zrotation Xrotation Yrotation
                            End Site
                            {
                              OFFSET -1.857 0 0
                            }
                          }
                        }
                      }
                    }
                    JOINT RightInHandPinky
                    {
                      OFFSET -3.16105 0.469368 -1.20179
                      CHANNELS 3 Zrotation Xrotation Yrotation
                      JOINT RightHandPinky1
                      {
                        OFFSET -4.14105 -0.022105 -1.09053
                        CHANNELS 3 Zrotation Xrotation Yrotation
                        JOINT RightHandPinky2
                        {
                          OFFSET -2.75653 0 0
                          CHANNELS 3 Zrotation Xrotation Yrotation
                          JOINT RightHandPinky3
                          {
                            OFFSET -1.74189 0 0
                            CHANNELS 3 Zrotation Xrotation Yrotation
                            End Site
                            {
                              OFFSET -1.645 0 0
                            }
                          }
                        }
                      }
                    }
                  }
                }
              }
            }
            JOINT LeftShoulder
            {
              OFFSET 3.23079 6.93624 -0.032633
              CHANNELS 3 Zrotation Xrotation Yrotation
              JOINT LeftArm
              {
                OFFSET 12.8235 -0.00564763 -0.0637926
                CHANNELS 3 Zrotation Xrotation Yrotation
                JOINT LeftForeArm
                {
                  OFFSET 26.4641 -0.00020372 -0.0407631
                  CHANNELS 3 Zrotation Xrotation Yrotation
                  JOINT LeftHand
                  {
                    OFFSET 25.9912 -0.0207868 -0.0178714
                    CHANNELS 3 Zrotation Xrotation Yrotation
                    JOINT LeftHandThumb1
                    {
                      OFFSET 2.48905 0.190105 3.12053
                      CHANNELS 3 Zrotation Xrotation Yrotation
                      JOINT LeftHandThumb2
                      {
                        OFFSET 3.68274 0 0
                        CHANNELS 3 Zrotation Xrotation Yrotation
                        JOINT LeftHandThumb3
                        {
                          OFFSET 2.55832 0 0
                          CHANNELS 3 Zrotation Xrotation Yrotation
                          End Site
                          {
                            OFFSET 2.194 0 0
                          }
                        }
                      }
                    }
                    JOINT LeftInHandIndex
                    {
                      OFFSET 3.22368 0.508421 1.97842
                      CHANNELS 3 Zrotation Xrotation Yrotation
                      JOINT LeftHandIndex1
                      {
                        OFFSET 5.21684 -0.091368 0.999158
                        CHANNELS 3 Zrotation Xrotation Yrotation
                        JOINT LeftHandIndex2
                        {
                          OFFSET 3.61937 0 0
                          CHANNELS 3 Zrotation Xrotation Yrotation
                          JOINT LeftHandIndex3
                          {
                            OFFSET 2.0521 0 0
                            CHANNELS 3 Zrotation Xrotation Yrotation
                            End Site
                            {
                              OFFSET 1.805 0 0
                            }
                          }
                        }
                      }
                    }
                    JOINT LeftInHandMiddle
                    {
                      OFFSET 3.38211 0.517263 0.756737
                      CHANNELS 3 Zrotation Xrotation Yrotation
                      JOINT LeftHandMiddle1
                      {
                        OFFSET 5.17411 -0.084 0.313895
                        CHANNELS 3 Zrotation Xrotation Yrotation
                        JOINT LeftHandMiddle2
                        {
                          OFFSET 3.94947 0 0
                          CHANNELS 3 Zrotation Xrotation Yrotation
                          JOINT LeftHandMiddle3
                          {
                            OFFSET 2.47579 0 0
                            CHANNELS 3 Zrotation Xrotation Yrotation
                            End Site
                            {
                              OFFSET 1.975 0 0
                            }
                          }
                        }
                      }
                    }
                    JOINT LeftInHandRing
                    {
                      OFFSET 3.36516 0.537895 -0.128947
                      CHANNELS 3 Zrotation Xrotation Yrotation
                      JOINT LeftHandRing1
                      {
                        OFFSET 4.63474 -0.022105 -0.478947
                        CHANNELS 3 Zrotation Xrotation Yrotation
                        JOINT LeftHandRing2
                        {
                          OFFSET 3.44238 0 0
                          CHANNELS 3 Zrotation Xrotation Yrotation
                          JOINT LeftHandRing3
                          {
                            OFFSET 2.3881 0 0
                            CHANNELS 3 Zrotation Xrotation Yrotation
                            End Site
                            {
                              OFFSET 1.857 0 0
                            }
                          }
                        }
                      }
                    }
                    JOINT LeftInHandPinky
                    {
                      OFFSET 3.16105 0.469368 -1.20179
                      CHANNELS 3 Zrotation Xrotation Yrotation
                      JOINT LeftHandPinky1
                      {
                        OFFSET 4.14105 -0.022105 -1.09053
                        CHANNELS 3 Zrotation Xrotation Yrotation
                        JOINT LeftHandPinky2
                        {
                          OFFSET 2.75653 0 0
                          CHANNELS 3 Zrotation Xrotation Yrotation
                          JOINT LeftHandPinky3
                          {
                            OFFSET 1.74189 0 0
                            CHANNELS 3 Zrotation Xrotation Yrotation
                            End Site
                            {
                              OFFSET 1.645 0 0
                            }
                          }
                        }
                      }
                    }
                  }
                }
              }
            }
          }
        }
      }
    }
  }
}
MOTION
Frames: 2
Frame Time: 0.00833333
1.050000000000000000e+03 0.000000000000000000e+00 0.000000000000000000e+00 0.000000000000000000e+00 0.000000000000000000e+00 0.000000000000000000e+00 2.485497232883263763e+01 9.805024606132208831e+00 -1.127128589090580704e+02 1.763643644948168543e+01 -5.725585610539722126e+01 5.368097211626425391e+00 -9.829755364308534027e+00 2.141245580665780679e+01 -1.707812446804213735e+00 1.211333998934498801e+01 1.633843807132845072e+01 4.459258961677713984e+01 3.235317576923394256e+01 -3.957588101018371418e+01 1.042729102942589847e+01 -1.104405629535960287e+01 5.567451288593506575e+01 2.598673530153008215e+01 -5.984051642457149711e+00 -2.482513354385027782e+01 -1.492637595661005179e+00 -7.889289200093961840e-01 1.054116805254158251e+01 -2.833087881366464700e+01 -2.507446628873455374e-01 2.172448233922543270e+00 -7.357083006098993572e+00 -3.815577283780102746e-01 3.294409419916532578e+00 -1.135930666397253752e+01 -1.156050864943926504e+00 -2.162159523197097755e-01 3.717584800971389214e+00 -2.379362968651137056e+00 -2.628220381645760995e+00 4.232183496443272475e+01 -2.082181240913465103e+01 1.019316374346137088e+00 4.731682299904673528e+01 1.503785866602613908e+01 1.011115267838103904e+00 -7.016388548326414565e+00 8.939299196036843398e+01 -3.023715103816972771e+01 -1.348952840723865165e+01 5.389885505043910996e+01 -5.478427039174687252e+01 1.003697056672088621e+02 -1.336238709639463984e+01 -3.194884423016704034e+01 3.406838275325455356e+01 2.818400000000000105e+01 1.072940000000000005e+01 1.915919999999999845e+01 -9.667702081761875978e-16 -1.011626290035785837e-14 -1.000000000000000000e+01 -7.838476040990919189e-15 -1.034707427209931935e-14 -1.000000000000000000e+01 -7.518589171660448781e-15 3.407107117224748666e-16 2.467361607189004239e-15 1.998179999999999978e+01 8.718970000000000331e-01 2.396399999999999864e+00 2.400000000000000000e+01 -1.102408159997156350e-14 -2.304311357039386088e-14 2.000000000000000000e+01 -2.762329743120530323e-15 -1.534584259853414460e-14 -7.518589171660448781e-15 3.407107117224748666e-16 2.467361607189004239e-15 2.000000000000000000e+01 7.032598171589954147e-15 7.768005641007759332e-15 2.400000000000000000e+01 -1.151482043867430459e-14 -3.683047946032752378e-15 2.000000000000000000e+01 3.988956175415755666e-15 -3.246650417975455869e-15 -7.518589171660448781e-15 3.407107117224748666e-16 2.467361607189004239e-15 1.997479999999999833e+01 -1.025649999999999951e+00 -2.819380000000000219e+00 2.400000000000000000e+01 2.782469158133736322e-15 9.491542740985775482e-15 2.000000000000000000e+01 -4.149485278117696989e-15 -6.158695024729895383e-15 -7.518589171660448781e-15 3.407107117224748666e-16 2.467361607189004239e-15 1.978150000000000119e+01 -3.009479999999999933e+00 -8.305149999999999366e+00 2.400000000000000000e+01 -2.745457535767340677e-15 -1.446929695343867231e-14 2.000000000000000000e+01 4.282235981136302736e-16 7.878755218091649554e-15 1.215640243319704616e+01 -9.408049297096646058e+00 -4.310036575575435336e+01 1.742188625090485843e+01 3.693512162206897642e+01 -1.289828980539362817e+02 1.464469754084796591e+02 -2.009804403611462575e+01 1.627311925078234651e+02 -4.212489943590827579e+01 -1.092765768338289689e+01 1.463543294810686035e+01 -2.818400000000000105e+01 1.072940000000000005e+01 -1.915919999999999845e+01 1.242868753375597667e-14 -9.803454066766511644e-16 1.000000000000000000e+01 3.240964631573250217e-15 -2.147914925000645022e-16 1.000000000000000000e+01 -5.053515631105820604e-15 -3.573958900235586603e-15 -2.729332317112973101e-15 -1.998179999999999978e+01 8.718970000000000331e-01 -2.396399999999999864e+00 -2.400000000000000000e+01 -1.384701191071078636e-15 1.723470136982165624e-15 -2.000000000000000000e+01 2.217171591857037148e-15 -8.570183441988666406e-15 -5.053515631105820604e-15 -3.573958900235586603e-15 -2.729332317112973101e-15 -2.000000000000000000e+01 1.198749955194461325e-14 6.214225556576071530e-15 -2.400000000000000000e+01 1.604858220273971328e-15 1.040770256322900669e-14 -2.000000000000000000e+01 4.221592515538306428e-15 -8.072023200579119338e-15 -5.053515631105820604e-15 -3.573958900235586603e-15 -2.729332317112973101e-15 -1.997479999999999833e+01 -1.025649999999999951e+00 2.819380000000000219e+00 -2.400000000000000000e+01 -2.875274398271913290e-15 -2.428824282457660563e-14 -2.000000000000000000e+01 5.584153706227286085e-15 6.621787229838077987e-15 -5.053515631105820604e-15 -3.573958900235586603e-15 -2.729332317112973101e-15 -1.978150000000000119e+01 -3.009479999999999933e+00 8.305149999999999366e+00 -2.400000000000000000e+01 -9.587320343967155947e-15 2.611253943132477889e-14 -2.000000000000000000e+01 -3.976519462146094786e-15 1.949097639501052271e-14
1.050000000000000000e+03 0.000000000000000000e+00 0.000000000000000000e+00 0.000000000000000000e+00 0.000000000000000000e+00 0.000000000000000000e+00 2.484251291690056007e+01 9.820474819322985383e+00 -1.126018004526513039e+02 1.758944523979392116e+01 -5.721618749144890614e+01 5.336251744002700192e+00 -9.811808761127160494e+00 2.141458726758975217e+01 -1.738377021796738475e+00 1.211597657514892745e+01 1.630684086006354150e+01 4.453760243096407123e+01 3.230315086347769693e+01 -3.957274813119080648e+01 1.038543399134617751e+01 -1.101404734420156828e+01 5.562623369473256929e+01 2.593705974443228257e+01 -5.994396634758151876e+00 -2.480012942417476651e+01 -1.528404240698188588e+00 -7.888552517531015607e-01 1.053147862724006600e+01 -2.826138597928390794e+01 -2.505425488366062603e-01 2.170624995041455563e+00 -7.338998863045335774e+00 -3.812938330963280831e-01 3.291730943661158815e+00 -1.133171591040739301e+01 -1.154048300247803027e+00 -2.159347101600723184e-01 3.710315220352746302e+00 -2.374334255116003156e+00 -2.626405644926673055e+00 4.224405376676382673e+01 -2.078550501961778707e+01 1.025226700978661754e+00 4.722164941213491574e+01 1.500469712979175441e+01 9.932309064932853815e-01 -6.970107037051068488e+00 8.934299209165399702e+01 -3.019108823970405098e+01 -1.338262440169835799e+01 5.381676150922979929e+01 -5.471171061575022065e+01 1.003128410784187849e+02 -1.331978943009703542e+01 -3.191619371444732423e+01 3.402616633761883946e+01 2.818400000000000105e+01 1.072940000000000005e+01 1.915919999999999845e+01 -9.697068886228735877e-16 -1.011209311723897187e-14 -1.000000000000000000e+01 -7.831099767753089682e-15 -1.033699102411065851e-14 -1.000000000000000000e+01 -7.511123542669925585e-15 3.408623794629569521e-16 2.464378804767192001e-15 1.998179999999999978e+01 8.718970000000000331e-01 2.396399999999999864e+00 2.400000000000000000e+01 -1.100818000676362056e-14 -2.301360988569542237e-14 2.000000000000000000e+01 -2.757548699907299622e-15 -1.532353640308385486e-14 -7.511123542669925585e-15 3.408623794629569521e-16 2.464378804767192001e-15 2.000000000000000000e+01 7.025581946261680180e-15 7.756995794707326682e-15 2.400000000000000000e+01 -1.149721606371910940e-14 -3.671332216365530885e-15 2.000000000000000000e+01 3.986510683586973455e-15 -3.251339313067965869e-15 -7.511123542669925585e-15 3.408623794629569521e-16 2.464378804767192001e-15 1.997479999999999833e+01 -1.025649999999999951e+00 -2.819380000000000219e+00 2.400000000000000000e+01 2.771712654832739936e-15 9.495593702074759664e-15 2.000000000000000000e+01 -4.142697637521296955e-15 -6.148059294087443422e-15 -7.511123542669925585e-15 3.408623794629569521e-16 2.464378804767192001e-15 1.978150000000000119e+01 -3.009479999999999933e+00 -8.305149999999999366e+00 2.400000000000000000e+01 -2.739722636043281755e-15 -1.445642911750018328e-14 2.000000000000000000e+01 4.263556588008113026e-16 7.869250352629254230e-15 1.214552460543085566e+01 -9.411794524029890141e+00 -4.307433584293200113e+01 1.731566976248244671e+01 3.688939567116975127e+01 -1.288849234486489479e+02 1.462122524632162595e+02 -2.012654985477582059e+01 1.623625371844094616e+02 -4.211013590916356719e+01 -1.092051371344384947e+01 1.458923896807512754e+01 -2.818400000000000105e+01 1.072940000000000005e+01 -1.915919999999999845e+01 1.240935184346361454e-14 -9.672164723467012625e-16 1.000000000000000000e+01 3.240361321483256329e-15 -2.049740976490216503e-16 1.000000000000000000e+01 -5.046891283083804814e-15 -3.574700757168859610e-15 -2.727227922284334819e-15 -1.998179999999999978e+01 8.718970000000000331e-01 -2.396399999999999864e+00 -2.400000000000000000e+01 -1.381596988198992251e-15 1.726077056570818068e-15 -2.000000000000000000e+01 2.215641814977327266e-15 -8.565142782011559486e-15 -5.046891283083804814e-15 -3.574700757168859610e-15 -2.727227922284334819e-15 -2.000000000000000000e+01 1.197528852529948952e-14 6.207687657911743316e-15 -2.400000000000000000e+01 1.601858530890092101e-15 1.041957168278261170e-14 -2.000000000000000000e+01 4.208274010509381798e-15 -8.053710540464612618e-15 -5.046891283083804814e-15 -3.574700757168859610e-15 -2.727227922284334819e-15 -1.997479999999999833e+01 -1.025649999999999951e+00 2.819380000000000219e+00 -2.400000000000000000e+01 -2.874103475682293752e-15 -2.426316542719227859e-14 -2.000000000000000000e+01 5.575025187253837405e-15 6.632727117274631243e-15 -5.046891283083804814e-15 -3.574700757168859610e-15 -2.727227922284334819e-15 -1.978150000000000119e+01 -3.009479999999999933e+00 8.305149999999999366e+00 -2.400000000000000000e+01 -9.581094369393219682e-15 2.610705153453644975e-14 -2.000000000000000000e+01 -3.985717133274949867e-15 1.949331199878927290e-14
